<svg xmlns="http://www.w3.org/2000/svg" xmlns:xlink="http://www.w3.org/1999/xlink" width="1536" zoomAndPan="magnify" viewBox="0 0 1152 767.999994" height="1024" preserveAspectRatio="xMidYMid meet" version="1.0"><path fill="#f9fff9" d="M 541.859375 635.21875 C 520.53125 586.132812 488.851562 490.566406 519.972656 388.519531 C 571.03125 221.101562 771.371094 101.054688 1012.472656 116.609375 C 1044.488281 320.855469 965.585938 512.203125 816.925781 597.574219 C 716.789062 655.082031 613.054688 648.382812 563.925781 641.523438 C 614.226562 603.398438 670.691406 554.410156 727.136719 492.394531 C 814.261719 396.679688 872.414062 301.695312 910.902344 225.910156 C 855.605469 303.035156 789.160156 386.355469 709.773438 471.484375 C 652.492188 532.914062 595.910156 587.300781 541.859375 635.21875 Z M 541.859375 635.21875 " fill-opacity="1" fill-rule="nonzero"/><path fill="#f9fff9" d="M 477.585938 640.554688 C 439.960938 651.925781 367.546875 666.894531 295.761719 635.5 C 177.988281 583.988281 107.492188 427.617188 139.382812 253.070312 C 291.101562 247.121094 423.957031 320.980469 473.5625 436.695312 C 506.976562 514.640625 493.253906 589.738281 484.058594 624.996094 C 460.535156 585.054688 429.613281 539.691406 389.183594 493.230469 C 326.789062 421.523438 262.464844 371.003906 210.457031 336.472656 C 262.007812 383.378906 317.121094 438.949219 372.457031 504.113281 C 412.386719 551.136719 447.238281 597.042969 477.585938 640.554688 Z M 477.585938 640.554688 " fill-opacity="1" fill-rule="nonzero"/></svg>